<svg id="Capa_1" data-name="Capa 1" xmlns="http://www.w3.org/2000/svg" viewBox="0 0 280 160.45"><defs><style>.cls-1{fill:#000000;}</style></defs><path class="cls-1" d="M66.14,2.33H82.27c12.21-.19,21.38,9.93,21.19,22.2.19,12.21-9,22.33-21.19,22.08H66.14ZM82.21,39.65c8.16,0,14-6.32,14-15.12s-5.88-15.24-14-15.24H73.1V39.65Z"/><path class="cls-1" d="M122.21,2.33h8.17l18.09,44.28h-7.66l-4.74-11.83H116.52l-4.81,11.83h-7.59Zm11.14,25.81-7.09-17.59-7.08,17.59Z"/><path class="cls-1" d="M155.83,29.53c1.33,7.15,5.82,11.32,12.34,11.32,6.26,0,10.06-2.91,10.12-7.27,0-3.73-3.48-6-11.14-6.84-10.18-1.07-15.24-5.5-15.24-13.28,0-7,6.64-12,15.56-12a16.82,16.82,0,0,1,10.69,3.48A15.5,15.5,0,0,1,184,14.09l-6.7,2.6c-1.21-5.25-5-8.61-9.81-8.61-5.06,0-8.6,2.28-8.6,5.51,0,3.6,2.65,5.5,9.3,6.2,11.39,1.2,17.08,5.44,17.08,13.53,0,8.48-6.83,14.24-17.08,14.24a18.81,18.81,0,0,1-12.59-4.24,18.66,18.66,0,0,1-6.33-11.51Z"/><polygon class="cls-1" points="191.97 2.33 198.93 2.33 198.93 20.61 221.89 20.61 221.89 2.33 228.85 2.33 228.85 46.61 221.89 46.61 221.89 27.31 198.93 27.31 198.93 46.61 191.97 46.61 191.97 2.33"/><path class="cls-1" d="M143.32,58.12h8.16l18.09,44.28h-7.66l-4.74-11.83H137.62l-4.8,11.83h-7.6Zm11.13,25.81-7.08-17.59-7.09,17.59Z"/><polygon class="cls-1" points="174.12 58.12 183.04 58.12 205.75 91.9 205.75 58.12 212.71 58.12 212.71 102.4 204.48 102.4 181.21 67.67 181.08 102.4 174.12 102.4 174.12 58.12"/><path class="cls-1" d="M221.75,58.12h16.13c12.21-.19,21.38,9.93,21.19,22.2.19,12.21-9,22.34-21.19,22.08H221.75Zm16.07,37.32c8.16,0,14-6.32,14-15.12s-5.88-15.24-14-15.24h-9.11V95.44Z"/><path class="cls-1" d="M8.13,141.12c1.33,7.14,5.82,11.32,12.34,11.32,6.26,0,10.06-2.91,10.12-7.28,0-3.73-3.48-6-11.13-6.83-10.19-1.08-15.25-5.5-15.25-13.28,0-7,6.64-12,15.56-12a16.82,16.82,0,0,1,10.69,3.48,15.47,15.47,0,0,1,5.82,9.17l-6.7,2.59c-1.2-5.25-5-8.6-9.81-8.6-5.06,0-8.6,2.28-8.6,5.5,0,3.61,2.66,5.51,9.3,6.2,11.38,1.2,17.08,5.44,17.08,13.54,0,8.48-6.83,14.23-17.08,14.23a18.85,18.85,0,0,1-12.59-4.23,18.68,18.68,0,0,1-6.33-11.52Z"/><polygon class="cls-1" points="39.73 113.91 75.66 113.91 75.66 120.62 61.17 120.62 61.17 158.2 54.21 158.2 54.21 120.62 39.73 120.62 39.73 113.91"/><path class="cls-1" d="M89.16,113.91h8.16l18.09,44.29h-7.65L103,146.36H83.47L78.66,158.2H71.07Zm11.14,25.81-7.09-17.58-7.08,17.58Z"/><path class="cls-1" d="M120,113.91H139.7c8.42,0,13.79,5.57,13.79,13.29,0,6.07-3.22,10.75-8.6,12.59l8.79,18.47h-7.59l-8.29-17.71H126.92v17.64h-7Zm19.29,19.93c4.55,0,7.27-2.53,7.27-6.64s-2.72-6.58-7.27-6.58H126.92v13.22Z"/><path class="cls-1" d="M163.82,141.12c1.33,7.14,5.82,11.32,12.34,11.32,6.26,0,10.06-2.91,10.12-7.28,0-3.73-3.48-6-11.13-6.83-10.19-1.08-15.25-5.5-15.25-13.28,0-7,6.64-12,15.56-12a16.8,16.8,0,0,1,10.69,3.48,15.47,15.47,0,0,1,5.82,9.17l-6.7,2.59c-1.2-5.25-5-8.6-9.81-8.6-5.06,0-8.6,2.28-8.6,5.5,0,3.61,2.66,5.51,9.3,6.2,11.39,1.2,17.08,5.44,17.08,13.54,0,8.48-6.83,14.23-17.08,14.23a18.85,18.85,0,0,1-12.59-4.23,18.62,18.62,0,0,1-6.32-11.52Z"/><path class="cls-1" d="M216.59,138.46c5.4.08,9.25,1.94,11.42,5.55,3.05,5.08,2,11.8.8,14.25h6.55c9.46-15.74,21.1-21.29,41.28-19.77l1.85-5.53c-2.75-.25-5.38-.38-7.86-.38-8.62,0-15.67,1.49-21.75,4.54a40.39,40.39,0,0,0-13.5,11.15,19.58,19.58,0,0,0-2.51-7.18,16.32,16.32,0,0,0-4.54-4.9,40.26,40.26,0,0,0,16.52-12.43,26.54,26.54,0,0,0,4.46,9.37,39.27,39.27,0,0,1,5.55-2c-2.79-3.43-6.67-9.69-3.87-17.2h-6.33c-4,7.44-12.79,17.67-26.14,18.76Z"/></svg>