<svg preserveAspectRatio="xMidYMid meet" data-bbox="0 0 739 294.21" viewBox="0 0 739 294.21" xmlns="http://www.w3.org/2000/svg" data-type="color" role="presentation" aria-hidden="true">
    <g>
        <path d="M2.08 221.78v-29.93h2.97c7.42 24.36 29.09 35.8 48.68 35.8s35.62-10.86 35.62-32.28C89.34 157.51 0 135.21 0 99.7c0-24.65 27.6-35.51 58.17-35.51 13.65 0 28.2 2.05 40.66 6.16v28.47h-2.97c-5.04-23.18-26.12-31.4-46.6-31.4-16.62 0-31.16 8.51-31.16 22.89 0 31.11 87.26 50.77 88.15 93.32.59 31.99-25.23 47.54-57.87 47.54-14.84 0-30.87-3.52-46.3-9.39Z" fill="#000000" data-color="1"></path>
        <path d="M578.74 67.59v2.98c-4.74 0-14.27-1.51-22.88 18.46l-59.65 140.58c-19.87 47.52-45.1 57.8-57.55 57.8-10.72 0-18.43-6.15-18.43-16.14 0-20.83 34.42-39.05 34.42-58.7 0-7.05-5.31-10.84-13.93-10.84-10.1 0-21.74 2.47-37.2 13.54-15.46 10.84-30.88 16.43-44.24 16.43-23.75 0-40.36-17.61-40.36-49.89v-111h-16.33v-3.17h16.33V16.9L341.43 0l-.24 67.64 45.48-.05v3.17l-45.48.05V182.1c0 29.68 14.84 40.8 31.74 40.8 10.1 0 22.46-4.23 29.11-9.37 18.67-14.39 33.66-17.94 44.04-17.94 9.77 0 15.42 4.97 15.42 13.21 0 19.93-28.2 34.6-28.2 50.17 0 6.72 4.45 10.84 12.45 10.84 16.33 0 35.04-16.14 46.29-42.27l-62-138.5c-8.33-18.46-18.1-18.46-22.88-18.46V67.6h60.56v2.98c-8 0-21.97-1.51-13.36 18.46l48.98 111.81 47.49-111.81c7.99-18.46-5.65-18.46-13.64-18.46V67.6h41.55Z" fill="#000000" data-color="1"></path>
        <path d="M567.75 198.3c0-52.23 111.35-76.27 111.35-98.27 0-23.77-95.92 42.22-95.92-.04 0-22.6 27.9-35.8 58.47-35.8 43.33 0 74.79 25.83 74.79 76.59v62.21c0 20.54 14.84 20.54 22.56 20.54v2.94h-26.12c-13.35 0-18.7-10.86-18.7-22.6v-34.33c-10.98 40.5-51.94 61.62-84.29 61.62-23.45 0-42.14-10.27-42.14-32.87Zm126.44-51.65c0-65.44-35.02-78.65-61.44-78.65-23.75 0-44.52 13.2-44.52 29.05 0 25.24 94.69-24.48 94.69 5.46 0 32.87-92.91 44.72-92.91 94.02 0 19.37 12.76 27.88 29.38 27.88 30.87 0 74.79-28.76 74.79-77.76Z" fill="#000000" data-color="1"></path>
        <path d="M131.34 198.3c0-52.23 111.35-76.27 111.35-98.27 0-23.77-95.92 42.22-95.92-.04 0-22.6 27.9-35.8 58.47-35.8 43.33 0 74.79 25.83 74.79 76.59v62.21c0 20.54 14.84 20.54 22.56 20.54v2.94h-26.12c-13.35 0-18.7-10.86-18.7-22.6v-34.33c-10.98 40.5-51.94 61.62-84.29 61.62-23.45 0-42.14-10.27-42.14-32.87Zm126.44-51.65c0-65.44-35.02-78.65-61.44-78.65-23.75 0-44.52 13.2-44.52 29.05 0 25.24 94.69-24.48 94.69 5.46 0 32.87-92.91 44.72-92.91 94.02 0 19.37 12.76 27.88 29.38 27.88 30.87 0 74.79-28.76 74.79-77.76Z" fill="#000000" data-color="1"></path>
        <path d="M27.96 260.15 15.14 288.2c-2.01 4.54-4.5 6.01-7.8 6.01-2.25 0-4.35-.76-5.79-2.22l1.2-1.8c1.3 1.33 2.78 1.94 4.65 1.94 2.29 0 3.96-1.04 5.5-4.4l1.34-2.98L3 260.15h2.53l10 22.1 10-22.1h2.44Z" fill="#000000" data-color="1"></path>
        <path d="M35.49 272.5c0-7.34 5.31-12.54 12.49-12.54s12.49 5.2 12.49 12.54-5.31 12.54-12.49 12.54-12.49-5.2-12.49-12.54Zm22.54 0c0-6.2-4.31-10.41-10.05-10.41s-10.05 4.21-10.05 10.41 4.31 10.41 10.05 10.41 10.05-4.21 10.05-10.41Z" fill="#000000" data-color="1"></path>
        <path d="M96.13 260.15v22.05c0 8.28-4.07 12.01-12.1 12.01-4.54 0-8.9-1.42-11.44-3.92l1.29-1.8c2.49 2.27 6.08 3.6 10.1 3.6 6.65 0 9.76-3.03 9.76-9.61v-4.16c-2.06 3.6-5.89 5.63-10.39 5.63-7.08 0-12.44-4.96-12.44-12.01s5.36-11.97 12.44-11.97c4.6 0 8.47 2.08 10.48 5.77v-5.58h2.3Zm-2.34 11.78c0-5.82-4.31-9.84-10.24-9.84s-10.19 4.02-10.19 9.84 4.3 9.89 10.19 9.89 10.24-4.07 10.24-9.89Z" fill="#000000" data-color="1"></path>
        <path d="M130.08 269.19v15.66h-2.3v-4.4c-1.58 2.84-4.64 4.59-9 4.59-5.6 0-9-2.84-9-7.05 0-3.74 2.39-6.91 9.33-6.91h8.57v-1.99c0-4.59-2.53-7.05-7.41-7.05-3.45 0-6.55 1.28-8.61 3.12l-1.2-1.7c2.49-2.18 6.12-3.5 10-3.5 6.18 0 9.62 3.12 9.62 9.23Zm-2.39 8.38v-4.64h-8.52c-5.17 0-6.98 2.13-6.98 4.96 0 3.22 2.53 5.2 6.94 5.2s7.13-1.99 8.57-5.53Z" fill="#000000" data-color="1"></path>
        <path d="m160.05 281.87 1.1-1.89c1.91 1.61 5.31 2.98 9 2.98 5.26 0 7.37-1.84 7.37-4.64 0-7.19-16.56-1.89-16.56-11.59 0-3.74 3.16-6.77 9.47-6.77 3.16 0 6.61.95 8.57 2.41l-1.1 1.9c-2.1-1.52-4.83-2.22-7.51-2.22-4.88 0-7.04 1.99-7.04 4.64 0 7.43 16.56 2.18 16.56 11.59 0 4.02-3.5 6.77-9.86 6.77-4.12 0-8.04-1.37-10.01-3.17Z" fill="#000000" data-color="1"></path>
        <path d="M204.76 283.29c-1.24 1.18-3.25 1.75-5.11 1.75-4.4 0-6.8-2.56-6.8-6.72v-16.13h-4.59v-2.03h4.59v-5.39h2.39v5.39h7.94v2.03h-7.94v15.9c0 3.17 1.58 4.92 4.64 4.92 1.49 0 2.87-.48 3.88-1.37l1 1.65Z" fill="#000000" data-color="1"></path>
        <path d="M239.03 260.15v24.7h-2.3v-5.3c-1.63 3.46-5.03 5.49-9.43 5.49-6.37 0-10.44-3.55-10.44-10.46v-14.43h2.39v14.24c0 5.58 3.02 8.51 8.23 8.51 5.65 0 9.14-3.74 9.14-9.6v-13.16h2.39Z" fill="#000000" data-color="1"></path>
        <path d="M277.14 249.75v35.1h-2.35v-5.82c-1.96 3.83-5.74 6.01-10.24 6.01-7.03 0-12.34-5.16-12.34-12.54s5.31-12.54 12.34-12.54c4.45 0 8.18 2.18 10.19 5.92v-16.13h2.39Zm-2.39 22.76c0-6.2-4.3-10.41-10.05-10.41s-10.05 4.21-10.05 10.41 4.31 10.41 10.05 10.41 10.05-4.21 10.05-10.41Z" fill="#000000" data-color="1"></path>
        <path d="M292.23 252.25c0-1.04.86-1.94 1.96-1.94s1.96.85 1.96 1.89-.86 1.94-1.96 1.94-1.96-.86-1.96-1.9Zm.77 7.9h2.39v24.7H293v-24.7Z" fill="#000000" data-color="1"></path>
        <path d="M308.51 272.5c0-7.34 5.31-12.54 12.49-12.54s12.49 5.2 12.49 12.54-5.31 12.54-12.49 12.54-12.49-5.2-12.49-12.54Zm22.53 0c0-6.2-4.3-10.41-10.05-10.41s-10.05 4.21-10.05 10.41 4.31 10.41 10.05 10.41 10.05-4.21 10.05-10.41Z" fill="#000000" data-color="1"></path>
    </g>
</svg>