<svg id="wave" style="transform:rotate(0deg); transition: 0.3s" viewBox="0 0 1440 100" version="1.1" xmlns="http://www.w3.org/2000/svg"><defs><linearGradient id="sw-gradient-0" x1="0" x2="0" y1="1" y2="0"><stop stop-color="rgba(254, 244, 234, 1)" offset="0%"></stop><stop stop-color="rgba(254, 244, 234, 1)" offset="100%"></stop></linearGradient></defs><path style="transform:translate(0, 0px); opacity:1" fill="url(#sw-gradient-0)" d="M0,30L80,25C160,20,320,10,480,16.7C640,23,800,47,960,46.7C1120,47,1280,23,1440,13.3C1600,3,1760,7,1920,6.7C2080,7,2240,3,2400,13.3C2560,23,2720,47,2880,58.3C3040,70,3200,70,3360,60C3520,50,3680,30,3840,18.3C4000,7,4160,3,4320,16.7C4480,30,4640,60,4800,75C4960,90,5120,90,5280,78.3C5440,67,5600,43,5760,30C5920,17,6080,13,6240,18.3C6400,23,6560,37,6720,38.3C6880,40,7040,30,7200,25C7360,20,7520,20,7680,18.3C7840,17,8000,13,8160,11.7C8320,10,8480,10,8640,15C8800,20,8960,30,9120,33.3C9280,37,9440,33,9600,41.7C9760,50,9920,70,10080,70C10240,70,10400,50,10560,40C10720,30,10880,30,11040,33.3C11200,37,11360,43,11440,46.7L11520,50L11520,100L11440,100C11360,100,11200,100,11040,100C10880,100,10720,100,10560,100C10400,100,10240,100,10080,100C9920,100,9760,100,9600,100C9440,100,9280,100,9120,100C8960,100,8800,100,8640,100C8480,100,8320,100,8160,100C8000,100,7840,100,7680,100C7520,100,7360,100,7200,100C7040,100,6880,100,6720,100C6560,100,6400,100,6240,100C6080,100,5920,100,5760,100C5600,100,5440,100,5280,100C5120,100,4960,100,4800,100C4640,100,4480,100,4320,100C4160,100,4000,100,3840,100C3680,100,3520,100,3360,100C3200,100,3040,100,2880,100C2720,100,2560,100,2400,100C2240,100,2080,100,1920,100C1760,100,1600,100,1440,100C1280,100,1120,100,960,100C800,100,640,100,480,100C320,100,160,100,80,100L0,100Z"></path></svg>