<svg id="wave" style="transform:rotate(180deg); transition: 0.3s" viewBox="0 0 1440 100" version="1.1" xmlns="http://www.w3.org/2000/svg"><defs><linearGradient id="sw-gradient-0" x1="0" x2="0" y1="1" y2="0"><stop stop-color="rgba(254, 244, 234, 1)" offset="0%"></stop><stop stop-color="rgba(254, 244, 234, 1)" offset="100%"></stop></linearGradient></defs><path style="transform:translate(0, 0px); opacity:1" fill="url(#sw-gradient-0)" d="M0,50L80,46.7C160,43,320,37,480,41.7C640,47,800,63,960,65C1120,67,1280,53,1440,50C1600,47,1760,53,1920,58.3C2080,63,2240,67,2400,63.3C2560,60,2720,50,2880,43.3C3040,37,3200,33,3360,38.3C3520,43,3680,57,3840,61.7C4000,67,4160,63,4320,53.3C4480,43,4640,27,4800,23.3C4960,20,5120,30,5280,30C5440,30,5600,20,5760,18.3C5920,17,6080,23,6240,30C6400,37,6560,43,6720,51.7C6880,60,7040,70,7200,75C7360,80,7520,80,7680,73.3C7840,67,8000,53,8160,51.7C8320,50,8480,60,8640,63.3C8800,67,8960,63,9120,58.3C9280,53,9440,47,9600,50C9760,53,9920,67,10080,73.3C10240,80,10400,80,10560,73.3C10720,67,10880,53,11040,40C11200,27,11360,13,11440,6.7L11520,0L11520,100L11440,100C11360,100,11200,100,11040,100C10880,100,10720,100,10560,100C10400,100,10240,100,10080,100C9920,100,9760,100,9600,100C9440,100,9280,100,9120,100C8960,100,8800,100,8640,100C8480,100,8320,100,8160,100C8000,100,7840,100,7680,100C7520,100,7360,100,7200,100C7040,100,6880,100,6720,100C6560,100,6400,100,6240,100C6080,100,5920,100,5760,100C5600,100,5440,100,5280,100C5120,100,4960,100,4800,100C4640,100,4480,100,4320,100C4160,100,4000,100,3840,100C3680,100,3520,100,3360,100C3200,100,3040,100,2880,100C2720,100,2560,100,2400,100C2240,100,2080,100,1920,100C1760,100,1600,100,1440,100C1280,100,1120,100,960,100C800,100,640,100,480,100C320,100,160,100,80,100L0,100Z"></path></svg>