<svg id="wave" style="transform:rotate(0deg); transition: 0.3s" viewBox="0 0 1440 100" version="1.1" xmlns="http://www.w3.org/2000/svg"><defs><linearGradient id="sw-gradient-0" x1="0" x2="0" y1="1" y2="0"><stop stop-color="rgba(81, 49, 37, 1)" offset="0%"></stop><stop stop-color="rgba(81, 49, 37, 1)" offset="100%"></stop></linearGradient></defs><path style="transform:translate(0, 0px); opacity:1" fill="url(#sw-gradient-0)" d="M0,10L48,8.3C96,7,192,3,288,11.7C384,20,480,40,576,51.7C672,63,768,67,864,56.7C960,47,1056,23,1152,11.7C1248,0,1344,0,1440,0C1536,0,1632,0,1728,5C1824,10,1920,20,2016,23.3C2112,27,2208,23,2304,26.7C2400,30,2496,40,2592,48.3C2688,57,2784,63,2880,58.3C2976,53,3072,37,3168,26.7C3264,17,3360,13,3456,11.7C3552,10,3648,10,3744,16.7C3840,23,3936,37,4032,36.7C4128,37,4224,23,4320,15C4416,7,4512,3,4608,1.7C4704,0,4800,0,4896,15C4992,30,5088,60,5184,61.7C5280,63,5376,37,5472,31.7C5568,27,5664,43,5760,51.7C5856,60,5952,60,6048,53.3C6144,47,6240,33,6336,25C6432,17,6528,13,6624,10C6720,7,6816,3,6864,1.7L6912,0L6912,100L6864,100C6816,100,6720,100,6624,100C6528,100,6432,100,6336,100C6240,100,6144,100,6048,100C5952,100,5856,100,5760,100C5664,100,5568,100,5472,100C5376,100,5280,100,5184,100C5088,100,4992,100,4896,100C4800,100,4704,100,4608,100C4512,100,4416,100,4320,100C4224,100,4128,100,4032,100C3936,100,3840,100,3744,100C3648,100,3552,100,3456,100C3360,100,3264,100,3168,100C3072,100,2976,100,2880,100C2784,100,2688,100,2592,100C2496,100,2400,100,2304,100C2208,100,2112,100,2016,100C1920,100,1824,100,1728,100C1632,100,1536,100,1440,100C1344,100,1248,100,1152,100C1056,100,960,100,864,100C768,100,672,100,576,100C480,100,384,100,288,100C192,100,96,100,48,100L0,100Z"></path></svg>