<svg id="wave" style="transform:rotate(0deg); transition: 0.3s" viewBox="0 0 1440 100" version="1.1" xmlns="http://www.w3.org/2000/svg"><defs><linearGradient id="sw-gradient-0" x1="0" x2="0" y1="1" y2="0"><stop stop-color="rgba(255, 255, 255, 1)" offset="0%"></stop><stop stop-color="rgba(255, 255, 255, 1)" offset="100%"></stop></linearGradient></defs><path style="transform:translate(0, 0px); opacity:1" fill="url(#sw-gradient-0)" d="M0,70L48,63.3C96,57,192,43,288,36.7C384,30,480,30,576,40C672,50,768,70,864,70C960,70,1056,50,1152,46.7C1248,43,1344,57,1440,66.7C1536,77,1632,83,1728,73.3C1824,63,1920,37,2016,31.7C2112,27,2208,43,2304,48.3C2400,53,2496,47,2592,40C2688,33,2784,27,2880,25C2976,23,3072,27,3168,31.7C3264,37,3360,43,3456,48.3C3552,53,3648,57,3744,60C3840,63,3936,67,4032,68.3C4128,70,4224,70,4320,71.7C4416,73,4512,77,4608,65C4704,53,4800,27,4896,23.3C4992,20,5088,40,5184,51.7C5280,63,5376,67,5472,68.3C5568,70,5664,70,5760,63.3C5856,57,5952,43,6048,43.3C6144,43,6240,57,6336,51.7C6432,47,6528,23,6624,15C6720,7,6816,13,6864,16.7L6912,20L6912,100L6864,100C6816,100,6720,100,6624,100C6528,100,6432,100,6336,100C6240,100,6144,100,6048,100C5952,100,5856,100,5760,100C5664,100,5568,100,5472,100C5376,100,5280,100,5184,100C5088,100,4992,100,4896,100C4800,100,4704,100,4608,100C4512,100,4416,100,4320,100C4224,100,4128,100,4032,100C3936,100,3840,100,3744,100C3648,100,3552,100,3456,100C3360,100,3264,100,3168,100C3072,100,2976,100,2880,100C2784,100,2688,100,2592,100C2496,100,2400,100,2304,100C2208,100,2112,100,2016,100C1920,100,1824,100,1728,100C1632,100,1536,100,1440,100C1344,100,1248,100,1152,100C1056,100,960,100,864,100C768,100,672,100,576,100C480,100,384,100,288,100C192,100,96,100,48,100L0,100Z"></path></svg>