<svg id="wave" style="transform:rotate(0deg); transition: 0.3s" viewBox="0 0 1440 100" version="1.1" xmlns="http://www.w3.org/2000/svg"><defs><linearGradient id="sw-gradient-0" x1="0" x2="0" y1="1" y2="0"><stop stop-color="rgba(81, 49, 37, 1)" offset="0%"></stop><stop stop-color="rgba(81, 49, 37, 1)" offset="100%"></stop></linearGradient></defs><path style="transform:translate(0, 0px); opacity:1" fill="url(#sw-gradient-0)" d="M0,30L48,26.7C96,23,192,17,288,23.3C384,30,480,50,576,58.3C672,67,768,63,864,53.3C960,43,1056,27,1152,23.3C1248,20,1344,30,1440,40C1536,50,1632,60,1728,65C1824,70,1920,70,2016,61.7C2112,53,2208,37,2304,28.3C2400,20,2496,20,2592,23.3C2688,27,2784,33,2880,38.3C2976,43,3072,47,3168,53.3C3264,60,3360,70,3456,65C3552,60,3648,40,3744,36.7C3840,33,3936,47,4032,58.3C4128,70,4224,80,4320,81.7C4416,83,4512,77,4608,71.7C4704,67,4800,63,4896,66.7C4992,70,5088,80,5184,73.3C5280,67,5376,43,5472,40C5568,37,5664,53,5760,58.3C5856,63,5952,57,6048,46.7C6144,37,6240,23,6336,23.3C6432,23,6528,37,6624,36.7C6720,37,6816,23,6864,16.7L6912,10L6912,100L6864,100C6816,100,6720,100,6624,100C6528,100,6432,100,6336,100C6240,100,6144,100,6048,100C5952,100,5856,100,5760,100C5664,100,5568,100,5472,100C5376,100,5280,100,5184,100C5088,100,4992,100,4896,100C4800,100,4704,100,4608,100C4512,100,4416,100,4320,100C4224,100,4128,100,4032,100C3936,100,3840,100,3744,100C3648,100,3552,100,3456,100C3360,100,3264,100,3168,100C3072,100,2976,100,2880,100C2784,100,2688,100,2592,100C2496,100,2400,100,2304,100C2208,100,2112,100,2016,100C1920,100,1824,100,1728,100C1632,100,1536,100,1440,100C1344,100,1248,100,1152,100C1056,100,960,100,864,100C768,100,672,100,576,100C480,100,384,100,288,100C192,100,96,100,48,100L0,100Z"></path></svg>