<svg id="wave" style="transform:rotate(0deg); transition: 0.3s" viewBox="0 0 1440 100" version="1.1" xmlns="http://www.w3.org/2000/svg"><defs><linearGradient id="sw-gradient-0" x1="0" x2="0" y1="1" y2="0"><stop stop-color="rgba(254, 244, 234, 1)" offset="0%"></stop><stop stop-color="rgba(254, 244, 234, 1)" offset="100%"></stop></linearGradient></defs><path style="transform:translate(0, 0px); opacity:1" fill="url(#sw-gradient-0)" d="M0,40L80,43.3C160,47,320,53,480,48.3C640,43,800,27,960,28.3C1120,30,1280,50,1440,53.3C1600,57,1760,43,1920,40C2080,37,2240,43,2400,48.3C2560,53,2720,57,2880,51.7C3040,47,3200,33,3360,35C3520,37,3680,53,3840,65C4000,77,4160,83,4320,86.7C4480,90,4640,90,4800,80C4960,70,5120,50,5280,50C5440,50,5600,70,5760,76.7C5920,83,6080,77,6240,66.7C6400,57,6560,43,6720,43.3C6880,43,7040,57,7200,56.7C7360,57,7520,43,7680,40C7840,37,8000,43,8160,53.3C8320,63,8480,77,8640,80C8800,83,8960,77,9120,63.3C9280,50,9440,30,9600,21.7C9760,13,9920,17,10080,16.7C10240,17,10400,13,10560,16.7C10720,20,10880,30,11040,35C11200,40,11360,40,11440,40L11520,40L11520,100L11440,100C11360,100,11200,100,11040,100C10880,100,10720,100,10560,100C10400,100,10240,100,10080,100C9920,100,9760,100,9600,100C9440,100,9280,100,9120,100C8960,100,8800,100,8640,100C8480,100,8320,100,8160,100C8000,100,7840,100,7680,100C7520,100,7360,100,7200,100C7040,100,6880,100,6720,100C6560,100,6400,100,6240,100C6080,100,5920,100,5760,100C5600,100,5440,100,5280,100C5120,100,4960,100,4800,100C4640,100,4480,100,4320,100C4160,100,4000,100,3840,100C3680,100,3520,100,3360,100C3200,100,3040,100,2880,100C2720,100,2560,100,2400,100C2240,100,2080,100,1920,100C1760,100,1600,100,1440,100C1280,100,1120,100,960,100C800,100,640,100,480,100C320,100,160,100,80,100L0,100Z"></path></svg>