<svg id="wave" style="transform:rotate(0deg); transition: 0.3s" viewBox="0 0 1440 100" version="1.1" xmlns="http://www.w3.org/2000/svg"><defs><linearGradient id="sw-gradient-0" x1="0" x2="0" y1="1" y2="0"><stop stop-color="rgba(254, 244, 234, 1)" offset="0%"></stop><stop stop-color="rgba(254, 244, 234, 1)" offset="100%"></stop></linearGradient></defs><path style="transform:translate(0, 0px); opacity:1" fill="url(#sw-gradient-0)" d="M0,60L80,63.3C160,67,320,73,480,70C640,67,800,53,960,55C1120,57,1280,73,1440,68.3C1600,63,1760,37,1920,23.3C2080,10,2240,10,2400,13.3C2560,17,2720,23,2880,26.7C3040,30,3200,30,3360,33.3C3520,37,3680,43,3840,46.7C4000,50,4160,50,4320,55C4480,60,4640,70,4800,63.3C4960,57,5120,33,5280,26.7C5440,20,5600,30,5760,43.3C5920,57,6080,73,6240,68.3C6400,63,6560,37,6720,36.7C6880,37,7040,63,7200,76.7C7360,90,7520,90,7680,83.3C7840,77,8000,63,8160,53.3C8320,43,8480,37,8640,43.3C8800,50,8960,70,9120,80C9280,90,9440,90,9600,75C9760,60,9920,30,10080,26.7C10240,23,10400,47,10560,53.3C10720,60,10880,50,11040,50C11200,50,11360,60,11440,65L11520,70L11520,100L11440,100C11360,100,11200,100,11040,100C10880,100,10720,100,10560,100C10400,100,10240,100,10080,100C9920,100,9760,100,9600,100C9440,100,9280,100,9120,100C8960,100,8800,100,8640,100C8480,100,8320,100,8160,100C8000,100,7840,100,7680,100C7520,100,7360,100,7200,100C7040,100,6880,100,6720,100C6560,100,6400,100,6240,100C6080,100,5920,100,5760,100C5600,100,5440,100,5280,100C5120,100,4960,100,4800,100C4640,100,4480,100,4320,100C4160,100,4000,100,3840,100C3680,100,3520,100,3360,100C3200,100,3040,100,2880,100C2720,100,2560,100,2400,100C2240,100,2080,100,1920,100C1760,100,1600,100,1440,100C1280,100,1120,100,960,100C800,100,640,100,480,100C320,100,160,100,80,100L0,100Z"></path></svg>