<svg id="wave" style="transform:rotate(180deg); transition: 0.3s" viewBox="0 0 1440 100" version="1.1" xmlns="http://www.w3.org/2000/svg"><defs><linearGradient id="sw-gradient-0" x1="0" x2="0" y1="1" y2="0"><stop stop-color="rgba(254, 244, 234, 1)" offset="0%"></stop><stop stop-color="rgba(254, 244, 234, 1)" offset="100%"></stop></linearGradient></defs><path style="transform:translate(0, 0px); opacity:1" fill="url(#sw-gradient-0)" d="M0,10L80,8.3C160,7,320,3,480,13.3C640,23,800,47,960,50C1120,53,1280,37,1440,28.3C1600,20,1760,20,1920,28.3C2080,37,2240,53,2400,53.3C2560,53,2720,37,2880,31.7C3040,27,3200,33,3360,45C3520,57,3680,73,3840,75C4000,77,4160,63,4320,55C4480,47,4640,43,4800,38.3C4960,33,5120,27,5280,20C5440,13,5600,7,5760,16.7C5920,27,6080,53,6240,53.3C6400,53,6560,27,6720,21.7C6880,17,7040,33,7200,45C7360,57,7520,63,7680,65C7840,67,8000,63,8160,51.7C8320,40,8480,20,8640,18.3C8800,17,8960,33,9120,46.7C9280,60,9440,70,9600,61.7C9760,53,9920,27,10080,26.7C10240,27,10400,53,10560,61.7C10720,70,10880,60,11040,53.3C11200,47,11360,43,11440,41.7L11520,40L11520,100L11440,100C11360,100,11200,100,11040,100C10880,100,10720,100,10560,100C10400,100,10240,100,10080,100C9920,100,9760,100,9600,100C9440,100,9280,100,9120,100C8960,100,8800,100,8640,100C8480,100,8320,100,8160,100C8000,100,7840,100,7680,100C7520,100,7360,100,7200,100C7040,100,6880,100,6720,100C6560,100,6400,100,6240,100C6080,100,5920,100,5760,100C5600,100,5440,100,5280,100C5120,100,4960,100,4800,100C4640,100,4480,100,4320,100C4160,100,4000,100,3840,100C3680,100,3520,100,3360,100C3200,100,3040,100,2880,100C2720,100,2560,100,2400,100C2240,100,2080,100,1920,100C1760,100,1600,100,1440,100C1280,100,1120,100,960,100C800,100,640,100,480,100C320,100,160,100,80,100L0,100Z"></path></svg>