<svg id="wave" style="transform:rotate(0deg); transition: 0.3s" viewBox="0 0 1440 100" version="1.1" xmlns="http://www.w3.org/2000/svg"><defs><linearGradient id="sw-gradient-0" x1="0" x2="0" y1="1" y2="0"><stop stop-color="rgba(254, 244, 234, 1)" offset="0%"></stop><stop stop-color="rgba(254, 244, 234, 1)" offset="100%"></stop></linearGradient></defs><path style="transform:translate(0, 0px); opacity:1" fill="url(#sw-gradient-0)" d="M0,0L80,15C160,30,320,60,480,61.7C640,63,800,37,960,26.7C1120,17,1280,23,1440,33.3C1600,43,1760,57,1920,53.3C2080,50,2240,30,2400,25C2560,20,2720,30,2880,35C3040,40,3200,40,3360,33.3C3520,27,3680,13,3840,16.7C4000,20,4160,40,4320,45C4480,50,4640,40,4800,41.7C4960,43,5120,57,5280,56.7C5440,57,5600,43,5760,31.7C5920,20,6080,10,6240,13.3C6400,17,6560,33,6720,46.7C6880,60,7040,70,7200,71.7C7360,73,7520,67,7680,58.3C7840,50,8000,40,8160,43.3C8320,47,8480,63,8640,71.7C8800,80,8960,80,9120,71.7C9280,63,9440,47,9600,48.3C9760,50,9920,70,10080,78.3C10240,87,10400,83,10560,70C10720,57,10880,33,11040,25C11200,17,11360,23,11440,26.7L11520,30L11520,100L11440,100C11360,100,11200,100,11040,100C10880,100,10720,100,10560,100C10400,100,10240,100,10080,100C9920,100,9760,100,9600,100C9440,100,9280,100,9120,100C8960,100,8800,100,8640,100C8480,100,8320,100,8160,100C8000,100,7840,100,7680,100C7520,100,7360,100,7200,100C7040,100,6880,100,6720,100C6560,100,6400,100,6240,100C6080,100,5920,100,5760,100C5600,100,5440,100,5280,100C5120,100,4960,100,4800,100C4640,100,4480,100,4320,100C4160,100,4000,100,3840,100C3680,100,3520,100,3360,100C3200,100,3040,100,2880,100C2720,100,2560,100,2400,100C2240,100,2080,100,1920,100C1760,100,1600,100,1440,100C1280,100,1120,100,960,100C800,100,640,100,480,100C320,100,160,100,80,100L0,100Z"></path></svg>