<svg id="wave" style="transform:rotate(0deg); transition: 0.3s" viewBox="0 0 1440 100" version="1.1" xmlns="http://www.w3.org/2000/svg"><defs><linearGradient id="sw-gradient-0" x1="0" x2="0" y1="1" y2="0"><stop stop-color="rgba(255, 255, 255, 1)" offset="0%"></stop><stop stop-color="rgba(255, 255, 255, 1)" offset="100%"></stop></linearGradient></defs><path style="transform:translate(0, 0px); opacity:1" fill="url(#sw-gradient-0)" d="M0,0L48,11.7C96,23,192,47,288,60C384,73,480,77,576,68.3C672,60,768,40,864,41.7C960,43,1056,67,1152,66.7C1248,67,1344,43,1440,43.3C1536,43,1632,67,1728,68.3C1824,70,1920,50,2016,48.3C2112,47,2208,63,2304,73.3C2400,83,2496,87,2592,86.7C2688,87,2784,83,2880,81.7C2976,80,3072,80,3168,80C3264,80,3360,80,3456,68.3C3552,57,3648,33,3744,25C3840,17,3936,23,4032,25C4128,27,4224,23,4320,30C4416,37,4512,53,4608,61.7C4704,70,4800,70,4896,61.7C4992,53,5088,37,5184,25C5280,13,5376,7,5472,8.3C5568,10,5664,20,5760,35C5856,50,5952,70,6048,70C6144,70,6240,50,6336,48.3C6432,47,6528,63,6624,66.7C6720,70,6816,60,6864,55L6912,50L6912,100L6864,100C6816,100,6720,100,6624,100C6528,100,6432,100,6336,100C6240,100,6144,100,6048,100C5952,100,5856,100,5760,100C5664,100,5568,100,5472,100C5376,100,5280,100,5184,100C5088,100,4992,100,4896,100C4800,100,4704,100,4608,100C4512,100,4416,100,4320,100C4224,100,4128,100,4032,100C3936,100,3840,100,3744,100C3648,100,3552,100,3456,100C3360,100,3264,100,3168,100C3072,100,2976,100,2880,100C2784,100,2688,100,2592,100C2496,100,2400,100,2304,100C2208,100,2112,100,2016,100C1920,100,1824,100,1728,100C1632,100,1536,100,1440,100C1344,100,1248,100,1152,100C1056,100,960,100,864,100C768,100,672,100,576,100C480,100,384,100,288,100C192,100,96,100,48,100L0,100Z"></path></svg>